<svg xmlns="http://www.w3.org/2000/svg" width="192" height="192" viewBox="0 0 192 192">
  <defs>
    <linearGradient id="g1" x1="0%" y1="100%" x2="100%" y2="0%">
      <stop offset="0%" stop-color="#2563eb" />
      <stop offset="100%" stop-color="#38bdf8" />
    </linearGradient>
  </defs>
  <rect width="192" height="192" rx="48" fill="url(#g1)" />
  <g fill="#fff" opacity="0.92">
    <path d="M96 46c-28.4 0-51.4 23-51.4 51.4 0 28.3 23 51.3 51.4 51.3s51.4-23 51.4-51.3C147.4 69 124.4 46 96 46zm0 87.2c-19.7 0-35.8-16-35.8-35.8 0-19.7 16-35.8 35.8-35.8s35.8 16 35.8 35.8c0 19.7-16.1 35.8-35.8 35.8z"/>
    <path d="M96 70.8c-3.4 0-6.6 1.3-9 3.7l-22.3 22.3 10.8 10.8 20.5-20.5 20.5 20.5 10.8-10.8L105 74.5c-2.4-2.4-5.6-3.7-9-3.7z"/>
  </g>
</svg>
