<svg xmlns="http://www.w3.org/2000/svg" width="512" height="512" viewBox="0 0 512 512">
  <defs>
    <linearGradient id="gradient512" x1="0%" y1="100%" x2="100%" y2="0%">
      <stop offset="0%" stop-color="#2563eb" />
      <stop offset="100%" stop-color="#38bdf8" />
    </linearGradient>
  </defs>
  <rect width="512" height="512" rx="128" fill="url(#gradient512)" />
  <g fill="#fff" opacity="0.92">
    <path d="M256 122c-75.6 0-136.8 61.2-136.8 136.8S180.4 395.6 256 395.6 392.8 334.4 392.8 258.8 331.6 122 256 122zm0 232.8c-52.3 0-96-43.7-96-96 0-52.3 43.7-96 96-96s96 43.7 96 96c0 52.3-43.7 96-96 96z"/>
    <path d="M256 189.3c-9.1 0-17.6 3.6-24 10L171 260.4l28.8 28.8L256 233.9l56.2 55.3 28.8-28.8-61-61.1c-6.4-6.4-14.9-10-24-10z"/>
  </g>
</svg>
